<?xml version="1.0" encoding="utf-8"?>
<!-- Generator: Adobe Illustrator 18.0.0, SVG Export Plug-In . SVG Version: 6.00 Build 0)  -->
<!DOCTYPE svg PUBLIC "-//W3C//DTD SVG 1.1//EN" "http://www.w3.org/Graphics/SVG/1.1/DTD/svg11.dtd">
<svg version="1.1" id="Layer_1" xmlns="http://www.w3.org/2000/svg" xmlns:xlink="http://www.w3.org/1999/xlink" x="0px" y="0px"
	 viewBox="0 0 64 64" enable-background="new 0 0 64 64" xml:space="preserve">
<g>
	<rect x="8" y="52" width="10" height="4"/>
	<path d="M60.8,31l5-5L54,14.2l-3,3v-6.1L38.8,0H4C1.8,0,0,1.8,0,4v56c0,2.2,1.8,4,4,4h43c2.2,0,4-1.8,4-4V40.8L60.8,31L60.8,31z
		 M60.2,26L58,28.2L51.8,22l2.2-2.2L60.2,26z M28,48.5l3.5,3.5H28V48.5z M29.5,44.3L49,24.8l1.7,1.7L31.2,46L29.5,44.3z M40,6.5
		l3.8,3.5H40V6.5z M47,60H4V4h32v10h11v7.2l-23,23V56h11.8L47,44.8V60z M35.7,50.5L34,48.8l19.5-19.5l1.7,1.7L35.7,50.5z"/>
</g>
</svg>
